<?xml version="1.0" standalone="no"?>
<!DOCTYPE svg PUBLIC "-//W3C//DTD SVG 20010904//EN"
 "http://www.w3.org/TR/2001/REC-SVG-20010904/DTD/svg10.dtd">
<svg version="1.0" xmlns="http://www.w3.org/2000/svg"
 width="16.000000pt" height="16.000000pt" viewBox="0 0 16.000000 16.000000"
 preserveAspectRatio="xMidYMid meet">
<metadata>
Created by potrace 1.11, written by Peter Selinger 2001-2013
</metadata>
<g transform="translate(0.000000,16.000000) scale(0.001600,-0.001600)"
fill="#000000" stroke="none">
<path d="M0 5000 l0 -5000 5000 0 5000 0 0 5000 0 5000 -5000 0 -5000 0 0
-5000z m6140 1630 c0 -473 3 -860 6 -860 3 0 27 18 52 41 67 59 232 166 315
204 170 78 304 106 517 106 251 0 442 -51 610 -164 228 -154 370 -383 443
-716 20 -94 21 -122 24 -1218 l4 -1123 -426 0 -425 0 0 1049 c0 1153 0 1149
-60 1277 -79 166 -215 244 -424 244 -208 0 -403 -82 -583 -245 l-53 -47 0
-1139 0 -1139 -425 0 -425 0 0 2295 0 2295 425 0 425 0 0 -860z m-2470 -514
c152 -10 347 -75 467 -157 239 -162 379 -394 450 -746 16 -80 18 -188 20
-1200 l4 -1113 -426 0 -425 0 0 1049 c0 1154 0 1149 -61 1277 -57 120 -141
191 -274 229 -83 25 -283 16 -375 -15 -123 -42 -256 -121 -355 -212 l-55 -50
0 -1139 0 -1139 -425 0 -425 0 0 1590 0 1590 259 0 c142 0 282 -5 312 -10 102
-20 147 -70 179 -200 12 -47 26 -102 31 -122 l10 -38 82 72 c193 168 410 279
619 319 69 13 238 27 278 23 14 -2 63 -5 110 -8z"/>
</g>
</svg>
